<?xml version="1.0" encoding="utf-8"?>
<!-- Generator: Adobe Illustrator 22.1.0, SVG Export Plug-In . SVG Version: 6.00 Build 0)  -->
<svg version="1.1" id="Layer_1" xmlns="http://www.w3.org/2000/svg" xmlns:xlink="http://www.w3.org/1999/xlink" x="0px" y="0px"
	 viewBox="0 0 125 125" style="enable-background:new 0 0 125 125;" xml:space="preserve">
<style type="text/css">
	.st0{fill:#511019;}
	.st1{fill:#FFFFFF;}
	.st2{fill:#FDBA33;}
	.st3{fill:#FFDF3F;}
	.st4{fill:#3CAB49;}
	.st5{fill:none;}
	.st6{font-family:'MyriadPro-Semibold';}
	.st7{font-size:12.2293px;}
	.st8{fill:#F47821;}
	.st9{fill:#B55927;}
	.st10{opacity:0.37;fill:#FFFFFF;}
	.st11{font-family:'MyriadPro-Bold';}
	.st12{font-size:5.707px;}
</style>
<g>
	<circle class="st0" cx="62.5" cy="63.2" r="57.2"/>
	<path class="st1" d="M62.5,120.8C30.7,120.8,4.9,95,4.9,63.2c0-31.8,25.8-57.6,57.6-57.6s57.6,25.8,57.6,57.6
		C120.1,95,94.3,120.8,62.5,120.8z M62.5,6.4C31.2,6.4,5.7,31.9,5.7,63.2S31.2,120,62.5,120s56.8-25.5,56.8-56.8S93.8,6.4,62.5,6.4z
		"/>
</g>
<g>
	<circle class="st2" cx="62.5" cy="63.2" r="54.4"/>
	<path class="st1" d="M62.5,118C32.3,118,7.7,93.4,7.7,63.2C7.7,33,32.3,8.4,62.5,8.4c30.2,0,54.8,24.6,54.8,54.8
		C117.3,93.4,92.7,118,62.5,118z M62.5,9.3c-29.8,0-54,24.2-54,54c0,29.8,24.2,54,54,54c29.8,0,54-24.2,54-54
		C116.5,33.5,92.3,9.3,62.5,9.3z"/>
</g>
<g>
	<circle class="st3" cx="62.5" cy="63.2" r="51"/>
</g>
<g>
	<circle class="st3" cx="62.5" cy="63.2" r="49.4"/>
	<path class="st1" d="M62.5,113.2c-27.6,0-50-22.4-50-50s22.4-50,50-50s50,22.4,50,50S90.1,113.2,62.5,113.2z M62.5,14.3
		c-27,0-48.9,21.9-48.9,48.9c0,27,21.9,48.9,48.9,48.9c27,0,48.9-21.9,48.9-48.9C111.4,36.3,89.5,14.3,62.5,14.3z"/>
</g>
<path class="st4" d="M93.8,82.4H33.4c-3.9,0-7-3.2-7-7v0c0-3.9,3.2-7,7-7h60.4c3.9,0,7,3.2,7,7v0C100.8,79.2,97.7,82.4,93.8,82.4z"
	/>
<rect x="25.8" y="53.7" class="st5" width="78.2" height="14.5"/>
<text transform="matrix(1 0 0 1 25.8393 62.4201)" class="st0 st6 st7">Eat-Da-Burger</text>
<path class="st3" d="M285.9,166.9c-0.8-0.7-0.8-1.3,0.1-1.9C286,165.6,285.9,166.2,285.9,166.9z"/>
<path class="st3" d="M285.3,170.3c0.1-0.4,0.3-0.9,0.4-1.3C285.6,169.4,285.4,169.8,285.3,170.3z"/>
<path class="st8" d="M90,34.7c0.8,1.9,2,3.5,2.8,5.3c1.6,4,2.7,8,2.6,12.3c-20.7,0-41.5,0-62.2,0c-1.3,0-1.5-0.4-1.4-1.6
	c0.7-9.5,4.7-17.2,12.2-23.1c6.5-5,13.9-7.1,21.9-6.6c6.7,0.5,12.8,2.8,18,7.2c1.5,1.3,2.9,2.6,4.1,4.1c0,0.3,0.2,0.5,0.5,0.5
	c0,0,0,0,0,0c0.1,0.2,0.3,0.3,0.5,0.4c0.1,0.2,0.2,0.3,0.3,0.5C89.5,34.3,89.6,34.5,90,34.7L90,34.7z"/>
<path class="st8" d="M35.4,88.3c0.5,0.4,1.1,0.2,1.6,0.2c19,0,37.9,0,56.9,0c1.8,0,1.8,0.1,1.4,1.9c-1.1,4.2-4.5,6-8.1,6
	c-15.7,0-31.4,0.1-47.1,0c-4.6,0-7.9-3.1-8.1-7.9C33,88.1,34.2,88.3,35.4,88.3z"/>
<path class="st0" d="M98.3,66.6c2,1.6,3,3.5,2.3,6.1c-1.7-0.5-3-0.1-4.4,1c-2.8,2.4-6.4,2.2-9.1-0.4c-5.3-5.1-13.4-5.1-18.8-0.1
	c-3.2,3-6.7,2.9-9.9-0.1c-5.1-4.8-13.2-4.8-18.3-0.2c-3.4,3.1-6.2,3.2-9.9,0.3c-0.8-0.6-1.7-1-2.6-0.8c-1,0.2-1.2-0.3-1.2-1.1
	c-0.2-2.7,2.3-5.2,4.7-5.2c21.6,0.1,43.2,0.1,64.8,0.1C96.7,66.3,97.5,66.4,98.3,66.6z"/>
<path class="st0" d="M100.8,79.8c0.1,2.4-0.8,4.3-3,5.5c0,0-0.1,0-0.1,0s-0.1,0-0.1,0c-0.4,0-0.8,0-1.2,0c-21.5,0-43,0-64.5,0
	c-0.8,0-1.5,0-2.3,0c-2.3-0.6-3.4-3.2-3.2-5.1c0.1-1,0.6-0.5,1-0.2c2.4,1.6,5,2.4,7.9,2.3c3.4-0.1,6.4-1.1,8.7-3.5
	c2.8-2.9,7.3-3,10.4,0.1c4.7,4.6,12.7,4.7,17.7,0.3c1.6-1.4,3.2-2.7,5.6-2.6c2,0,3.5,0.8,4.8,2.1c4.8,4.5,11.5,5,17,1.4
	C99.9,79.8,100.3,79,100.8,79.8z"/>
<path class="st2" d="M-204.8,202.7c-1.4-0.5-2-1.5-2.1-2.9C-204.9,199.8-204.8,201.2-204.8,202.7z"/>
<path class="st2" d="M-209.8,196.7c-1.1-0.2-1.7-0.9-1.9-2C-210.5,194.8-209.9,195.5-209.8,196.7z"/>
<path class="st2" d="M-208,198c-0.8-0.2-1.4-0.5-1.7-1.3C-208.9,196.8-208.2,197-208,198z"/>
<path class="st9" d="M62.5,21.1v31.2l-30.9,0C31.6,52.4,30.5,24.4,62.5,21.1z"/>
<path class="st9" d="M63.6,88.5v7.9l-23.7,0c0,0-8.7,1-8.1-7.9C63.6,88.5,63.6,88.5,63.6,88.5z"/>
<rect x="31.6" y="50.2" class="st10" width="63.8" height="2.1"/>
<rect x="31.7" y="88.2" class="st10" width="63.8" height="2.1"/>
<rect x="32.3" y="101" class="st5" width="62.4" height="9.3"/>
<text transform="matrix(1 0 0 1 58.331 105.0451)" class="st0 st11 st12">app</text>
</svg>
